<?xml version="1.0" standalone="no"?>
<!DOCTYPE svg PUBLIC "-//W3C//DTD SVG 20010904//EN"
 "http://www.w3.org/TR/2001/REC-SVG-20010904/DTD/svg10.dtd">
<svg version="1.0" xmlns="http://www.w3.org/2000/svg"
 width="320.000000pt" height="320.000000pt" viewBox="0 0 320.000000 320.000000"
 preserveAspectRatio="xMidYMid meet">
<metadata>
Created by potrace 1.11, written by Peter Selinger 2001-2013
</metadata>
<g transform="translate(0.000000,320.000000) scale(0.100000,-0.100000)"
fill="#000000" stroke="none">
<path d="M66 3083 c-24 -425 -48 -754 -56 -790 -9 -39 -13 -506 -3 -472 2 11
27 23 66 34 34 9 90 28 125 42 35 14 66 22 69 19 3 -3 -15 -47 -41 -98 -25
-51 -46 -104 -46 -116 0 -48 -17 -62 -64 -56 -27 4 -46 2 -50 -5 -12 -19 -45
6 -55 42 -8 26 -9 18 -10 -50 -1 -46 1 -83 4 -83 4 0 20 7 37 16 18 9 56 18
85 19 59 2 74 -10 88 -74 l7 -33 -111 4 -111 3 0 -742 0 -743 1600 0 1600 0 0
1515 c0 924 -4 1515 -9 1515 -5 0 -18 -11 -29 -25 -16 -20 -25 -23 -57 -18
-26 4 -40 2 -45 -8 -16 -25 -21 -2 -27 110 l-6 111 -78 0 c-92 0 -85 11 -103
-166 -5 -44 -34 -193 -41 -203 -2 -4 -50 -6 -106 -5 -83 2 -105 5 -115 19 -8
11 -20 15 -33 10 -13 -4 -23 0 -30 12 -9 15 -10 13 -5 -9 5 -24 3 -28 -17 -28
-12 0 -33 10 -46 21 -24 24 -25 23 -38 -34 -5 -25 -9 -28 -30 -23 -22 6 -25 3
-25 -24 0 -30 13 -40 25 -20 4 6 15 8 26 5 12 -4 21 -1 24 7 7 18 165 16 220
-2 36 -12 36 -12 15 -27 -12 -8 -32 -13 -46 -10 -15 3 -23 0 -21 -7 4 -12 -37
-36 -63 -36 -10 0 -20 -9 -23 -20 -3 -11 -12 -20 -20 -20 -18 0 -80 35 -125
70 -113 88 -153 123 -149 133 5 17 217 125 252 129 30 3 30 4 47 101 9 54 19
105 22 113 5 12 -136 14 -1009 14 l-1015 0 -1 -112 c0 -62 -4 -190 -8 -284 -8
-154 -11 -175 -33 -215 -52 -93 -86 -202 -102 -327 -9 -68 -16 -136 -16 -150
0 -33 -30 -112 -42 -112 -6 0 -7 224 -2 600 5 419 4 600 -4 600 -6 0 -13 -28
-17 -62 -9 -101 -35 -828 -35 -1004 0 -117 -3 -164 -13 -172 -18 -14 -116 -42
-150 -42 l-29 0 7 640 c4 352 5 640 3 640 -3 0 -8 -53 -12 -117z m1409 -947
c102 -23 328 -18 417 10 11 3 33 -18 76 -78 84 -116 209 -208 302 -223 59 -10
102 -33 96 -53 -2 -9 -7 -44 -11 -77 -16 -146 -51 -237 -136 -361 -84 -121
-198 -219 -339 -292 -66 -34 -128 -62 -138 -62 -9 0 -45 -9 -80 -20 -76 -24
-134 -30 -277 -31 -94 0 -125 4 -212 30 -145 44 -222 89 -320 188 -74 75 -89
98 -147 216 -35 73 -76 163 -91 202 l-27 69 23 73 c13 40 29 79 34 86 6 7 38
30 73 51 35 21 96 68 135 105 55 50 88 73 137 91 36 13 77 32 92 42 14 10 34
18 44 18 14 0 12 -7 -14 -33 -39 -40 -41 -57 -7 -57 30 0 99 33 187 91 68 43
61 43 183 15z m1071 -372 c-12 -89 -62 -150 -140 -170 -27 -6 -28 -5 -23 18 4
14 10 64 13 112 l7 86 75 -1 74 -1 -6 -44z m-1938 -252 c23 -54 42 -101 42
-105 0 -32 -101 34 -130 84 -20 37 -20 39 -3 66 22 35 36 52 43 53 3 0 24 -44
48 -98z m1520 -483 l-13 -154 -125 -8 -125 -7 -27 32 c-16 18 -28 36 -28 40 0
4 15 14 34 23 39 19 137 100 149 124 14 26 131 120 140 112 5 -5 2 -77 -5
-162z m-263 -29 c-21 -23 -105 -53 -137 -48 -16 2 1 12 57 34 97 38 103 39 80
14z m-177 -71 c26 -7 48 -13 49 -13 1 -1 -4 -23 -12 -49 -7 -25 -19 -82 -25
-126 -7 -44 -18 -85 -24 -90 -18 -15 -85 8 -102 34 -21 32 -74 182 -74 209 0
20 7 25 48 34 66 14 86 14 140 1z m112 -79 c0 -5 -4 -10 -10 -10 -5 0 -10 5
-10 10 0 6 5 10 10 10 6 0 10 -4 10 -10z m295 -24 c38 -16 52 -37 61 -94 l6
-41 -38 -6 c-63 -11 -71 -14 -126 -56 -29 -21 -56 -39 -60 -39 -20 0 -5 44 27
79 61 68 19 56 -51 -13 -36 -36 -69 -66 -73 -66 -33 0 -10 48 53 110 25 24 46
48 46 52 0 22 -35 2 -85 -48 -39 -40 -55 -51 -55 -38 0 10 23 39 50 66 28 26
50 50 50 53 0 13 -29 2 -70 -25 -49 -32 -90 -39 -90 -15 0 19 37 43 113 71 73
27 189 32 242 10z m99 -9 c19 -14 35 -72 36 -129 0 -46 -8 -68 -26 -68 -10 0
-14 14 -14 48 0 43 -7 78 -25 140 -8 25 3 28 29 9z m-1328 -119 c16 -12 48
-39 71 -60 35 -32 47 -37 73 -32 32 7 60 -8 60 -33 0 -23 -56 -74 -74 -67 -14
5 -13 10 4 34 13 18 16 31 10 35 -12 8 -60 -39 -60 -59 0 -16 26 -46 41 -46
19 0 8 -16 -28 -39 -34 -22 -37 -22 -49 -6 -11 14 -22 17 -57 12 -47 -7 -86
10 -139 61 -36 33 -35 42 7 71 45 30 95 93 95 117 -1 15 -8 11 -34 -18 -39
-45 -46 -47 -46 -11 0 60 70 83 126 41z m-156 -45 c0 -58 -14 -86 -30 -63 -17
24 3 110 26 110 2 0 4 -21 4 -47z m1057 15 c-3 -11 1 -34 9 -49 12 -25 12 -35
-1 -86 -8 -31 -15 -73 -15 -93 0 -50 -12 -65 -32 -43 -34 39 -133 221 -125
229 2 2 22 -2 44 -10 49 -17 58 -12 67 37 6 31 11 37 33 37 21 0 24 -4 20 -22z
m323 -25 c0 -22 -54 -233 -59 -233 -4 0 -15 24 -25 53 -11 28 -23 56 -27 62
-17 18 -8 47 24 76 40 38 87 60 87 42z m-1447 -68 c1 -15 -3 -30 -10 -32 -15
-5 -26 31 -18 58 9 27 25 12 28 -26z m-43 -52 c-1 -22 -25 -55 -33 -46 -9 8
-9 48 0 56 13 13 33 7 33 -10z m483 -58 c8 -20 -67 -113 -108 -132 -28 -13
-39 -14 -60 -5 -14 6 -25 16 -25 21 0 5 24 23 53 40 28 16 65 43 81 60 33 34
51 39 59 16z m1364 -226 l42 -45 -53 -18 c-80 -28 -86 -23 -63 52 10 35 22 62
26 60 4 -2 25 -24 48 -49z"/>
<path d="M1700 1814 c-52 -20 -84 -38 -83 -46 14 -82 33 -113 79 -128 85 -28
167 68 118 138 -8 12 -14 32 -12 44 2 11 -1 22 -7 23 -5 2 -48 -12 -95 -31z
m80 -34 c18 -34 8 -81 -22 -103 -23 -17 -31 -18 -56 -8 -41 17 -58 56 -37 87
8 13 21 24 27 24 9 0 9 -3 0 -12 -21 -21 -14 -56 14 -75 26 -16 27 -16 45 6
24 30 24 37 -5 66 -13 13 -21 26 -18 29 12 13 42 5 52 -14z"/>
<path d="M855 1761 c3 -11 2 -37 -4 -57 -13 -46 6 -87 49 -109 38 -20 58 -19
97 5 26 15 34 29 39 61 4 22 14 43 22 47 19 7 -2 15 -103 43 -38 11 -78 22
-88 25 -15 5 -18 2 -12 -15z m65 -30 c0 -5 -7 -14 -15 -21 -19 -16 -16 -49 6
-63 9 -5 28 -7 44 -3 23 6 27 11 23 37 -3 16 -1 32 3 35 11 7 39 -25 39 -45 0
-52 -96 -75 -131 -32 -23 28 -24 50 -3 79 15 22 34 29 34 13z"/>
<path d="M1251 1658 c-4 -13 -12 -59 -15 -103 -4 -44 -12 -98 -16 -120 -6 -25
-5 -56 2 -84 9 -35 17 -46 44 -57 46 -19 58 -18 93 12 36 30 39 62 15 157 -18
72 -83 210 -101 215 -7 2 -17 -7 -22 -20z m58 -110 c35 -78 52 -159 38 -187
-17 -35 -43 -49 -64 -35 -15 10 -18 26 -17 100 1 85 10 164 19 164 3 0 13 -19
24 -42z"/>
<path d="M1313 1210 c-24 -11 -43 -26 -43 -35 0 -19 13 -19 52 1 30 15 79 14
122 -2 9 -3 16 -1 16 5 0 12 -75 51 -95 50 -5 0 -29 -9 -52 -19z"/>
<path d="M872 598 c-16 -16 -15 -48 2 -48 7 0 16 8 20 18 3 9 9 23 12 30 7 15
-18 16 -34 0z"/>
</g>
</svg>
